<svg xmlns="http://www.w3.org/2000/svg" width="146" height="24" viewBox="0 0 146 24" fill="none">
  <path d="M145.328 6.64893H142.21V23.6164H145.328V6.64893Z" fill="black"/>
  <path d="M109.934 23.6164V14.0726C109.934 11.3646 107.914 9.32253 105.236 9.32253C102.948 9.32253 100.631 11.0696 100.631 14.4088V23.6164H97.511V0.728669L100.631 0.717285C100.631 0.717285 100.621 8.0722 100.631 8.06334C101.049 7.71107 102.668 6.27255 105.874 6.27255C109.783 6.27255 113.086 9.53533 113.086 13.3973V23.6164H109.934Z" fill="black"/>
  <path d="M145.328 0.717041H142.21V3.83544H145.328V0.717041Z" fill="black"/>
  <path d="M119.36 20.4812H116.225V23.6163H119.36V20.4812Z" fill="black"/>
  <path d="M23.1709 10.9175C23.3815 11.2326 23.4939 11.6033 23.4939 11.9823C23.4939 12.4907 23.2919 12.9783 22.9325 13.3379C22.573 13.6971 22.0855 13.8991 21.5772 13.8991C21.198 13.8991 20.8275 13.7869 20.5122 13.576C20.1971 13.3655 19.9514 13.0661 19.8063 12.7161C19.6612 12.3657 19.6233 11.9804 19.6972 11.6084C19.7712 11.2366 19.9537 10.8951 20.2219 10.6271C20.4899 10.3591 20.8314 10.1766 21.2033 10.1025C21.575 10.0286 21.9604 10.0665 22.3107 10.2117C22.6609 10.3567 22.9602 10.6024 23.1709 10.9175Z" fill="black"/>
  <path d="M23.1709 20.6179C23.3815 20.9331 23.4939 21.3038 23.4939 21.6827C23.4939 22.1912 23.2919 22.6787 22.9325 23.0383C22.573 23.3975 22.0855 23.5995 21.5772 23.5995C21.198 23.5995 20.8275 23.4873 20.5122 23.2765C20.1971 23.0659 19.9514 22.7666 19.8063 22.4165C19.6612 22.0662 19.6233 21.6809 19.6972 21.3088C19.7712 20.9371 19.9537 20.5956 20.2219 20.3276C20.4899 20.0595 20.8314 19.8771 21.2033 19.8029C21.575 19.729 21.9604 19.7669 22.3107 19.9122C22.6609 20.0571 22.9602 20.3028 23.1709 20.6179Z" fill="black"/>
  <path d="M23.4941 0.105469H18.894V4.70554H23.4941V0.105469Z" fill="black"/>
  <path d="M13.6116 20.6179C13.8222 20.9331 13.9346 21.3038 13.9346 21.6827C13.9346 22.1912 13.7326 22.6787 13.3732 23.0383C13.0137 23.3975 12.5262 23.5995 12.0178 23.5995C11.6387 23.5995 11.2682 23.4873 10.9529 23.2765C10.6378 23.0659 10.3921 22.7666 10.247 22.4165C10.1019 22.0662 10.064 21.6809 10.1379 21.3088C10.2119 20.9371 10.3944 20.5956 10.6625 20.3276C10.9305 20.0595 11.272 19.8771 11.6439 19.8029C12.0157 19.729 12.4011 19.7669 12.7513 19.9122C13.1015 20.0571 13.4009 20.3028 13.6116 20.6179Z" fill="black"/>
  <path d="M14.3181 9.68237H9.71802V14.2824H14.3181V9.68237Z" fill="black"/>
  <path d="M14.446 0.105469H9.59033V4.9611H14.446V0.105469Z" fill="black"/>
  <path d="M5.12633 0.109863H0.0151367V5.22106H5.12633V0.109863Z" fill="black"/>
  <path d="M4.60008 18.9995H0V23.5996H4.60008V18.9995Z" fill="black"/>
  <path d="M4.85563 9.55469H0V14.4103H4.85563V9.55469Z" fill="black"/>
  <path d="M42.8044 2.88565C44.1755 2.90183 44.7232 3.91052 44.7232 3.91052L46.7014 1.93237L46.699 1.9316L46.7051 1.92542C45.5635 0.682307 44.1609 0 42.7287 0C41.3369 0 40.1857 0.444886 39.3077 1.32208C38.4304 2.20059 37.9856 3.3415 37.9856 4.71342V6.64885H35.3218V9.33003H37.9825V23.6163H41.103V9.33003H46.6946V6.64885H41.1083V4.71342C41.1083 3.59617 41.7089 2.95371 42.8044 2.88565Z" fill="black"/>
  <path d="M88.3859 20.932C85.0147 20.932 82.568 18.4998 82.568 15.1488C82.568 11.8512 85.0897 9.36444 88.4339 9.36444C90.283 9.36444 91.7334 10.4317 92.3606 10.984L94.4908 8.85384C93.8793 8.25738 91.5982 6.27612 88.2843 6.27612C83.292 6.27612 79.3811 10.1735 79.3811 15.1488C79.3811 20.1037 83.2927 23.9849 88.286 23.9849C91.4726 23.9849 93.6216 22.2439 94.4794 21.3959L92.4057 19.3221C91.6413 20.0358 90.3011 20.932 88.3859 20.932Z" fill="black"/>
  <path d="M74.0546 21.1083C73.0159 21.1083 72.2239 20.4065 72.2239 18.3786V9.33605H77.8175V6.65487H72.2239V3.19116H69.1052V18.3786C69.1052 22.2176 70.8751 23.9603 74.0139 23.9603C75.1798 23.9603 76.6178 23.5012 77.8733 22.4555L75.9078 20.49C75.414 20.8898 74.7507 21.1083 74.0546 21.1083Z" fill="black"/>
  <path d="M57.1526 20.8641C54.1195 20.8641 51.9314 18.6384 51.4933 16.3397H64.0592V16.3351H65.8824C65.9356 15.9418 65.9655 15.541 65.9655 15.133C65.9655 10.2358 61.9957 6.26587 57.0985 6.26587C52.2013 6.26587 48.2314 10.2358 48.2314 15.133C48.2314 20.0301 52.2013 24.0001 57.0985 24.0001C60.0388 24.0001 62.4647 22.9466 64.135 21.3122L62.1917 19.1234C60.8441 20.3095 59.1488 20.8641 57.1526 20.8641ZM57.1526 9.33925C59.9773 9.33925 62.0412 11.2881 62.6374 13.657H51.5554C52.1956 11.1932 54.3047 9.33925 57.1526 9.33925Z" fill="black"/>
  <path d="M135.25 6.64881L135.248 8.48683C135.248 8.48683 133.205 6.27246 129.611 6.27246C124.733 6.27246 120.765 10.2037 120.765 15.036C120.765 20.0495 124.592 23.9768 129.477 23.9768C133.549 23.9768 135.258 21.7478 135.258 21.7478L135.251 23.6163H138.37V6.64881H135.25ZM129.885 20.9188C129.785 20.924 129.683 20.9269 129.581 20.9269C127.981 20.9269 126.53 20.2759 125.48 19.2249C124.423 18.1739 123.769 16.7218 123.769 15.1178C123.769 11.9101 126.383 9.30974 129.607 9.30974C132.832 9.30974 135.445 11.9101 135.445 15.1178C135.445 18.2326 132.981 20.7743 129.885 20.9188Z" fill="black"/>
</svg>